<svg width="10" height="10" fill="none" xmlns="http://www.w3.org/2000/svg">
  <path d="M9.86203 2.52171c-.06937-.08179-.16874-.12854-.27288-.12854H7.65761v1.02564c0 .47128-.40414.8547-.9009.8547-.49675 0-.9009-.38342-.9009-.8547V2.39317h-1.8018v1.02564c0 .47128-.40414.8547-.9009.8547-.49676 0-.9009-.38342-.9009-.8547V2.39317H.320768c-.104234 0-.203604.04675-.272973.12854-.06946.0818-.102343.19086-.09045.29975l.648198 5.96316C.617615 9.45692 1.14167 10 1.78419 10h6.34153c.64243 0 1.16649-.54307 1.17865-1.21547l.6482-5.96316c.0118-.1088-.02108-.21786-.09054-.29966z" fill="#FFC600"/>
  <path d="M3.15309 3.76068c.19873 0 .36036-.15333.36036-.34188V1.53846c0-.52795.56117-.854699 1.08108-.854699h.9009c.54721 0 .9009.335469.9009.854699V3.4188c0 .18855.16171.34188.36036.34188.19865 0 .36036-.15333.36036-.34188V1.53846C7.11705.647009 6.43507 0 5.49543 0h-.9009c-.99352 0-1.80181.690171-1.80181 1.53846V3.4188c0 .18855.16163.34188.36037.34188z" fill="#FFC600"/>
</svg>