<svg width="32" height="32" fill="none" xmlns="http://www.w3.org/2000/svg">
  <path d="M21 16c0 1.3261-.5268 2.5979-1.4645 3.5355C18.5979 20.4732 17.3261 21 16 21c-1.3261 0-2.5979-.5268-3.5355-1.4645C11.5268 18.5979 11 17.3261 11 16c0-.285.03-.5633.0817-.8333H9.33333v6.6616c0 .4634.375.8384.83837.8384H21.83c.2221-.0005.4349-.089.5917-.2462.1569-.1571.245-.3701.245-.5922v-6.6616h-1.7484c.0517.27.0817.5483.0817.8333zm-5 3.3333c.4378-.0001.8714-.0864 1.2759-.2541.4044-.1676.7719-.4133 1.0815-.723.3095-.3097.555-.6773.7225-1.0819.1674-.4045.2535-.8381.2534-1.276-.0001-.4378-.0864-.8714-.2541-1.2758-.1676-.4045-.4133-.772-.723-1.0815-.3097-.3096-.6773-.5551-1.0819-.7225-.4045-.1675-.8381-.2536-1.276-.2535-.8842.0002-1.7322.3517-2.3573.9771-.6252.6255-.9762 1.4736-.976 2.3579.0002.8843.3517 1.7322.9771 2.3574.6255.6251 1.4736.9762 2.3579.9759zM20 12.5h1.9983c.1328 0 .2601-.0526.3542-.1463.094-.0938.1471-.2209.1475-.3537v-1.9983c0-.13308-.0529-.26068-.1469-.35477A.50177.50177 0 0021.9983 9.5H20c-.1331 0-.2607.05285-.3547.14693-.0941.09409-.147.22169-.147.35477V12c.0017.275.2267.5.5017.5zM16 0C11.7565 0 7.68687 1.68571 4.68629 4.68629 1.68571 7.68687 0 11.7565 0 16s1.68571 8.3131 4.68629 11.3137C7.68687 30.3143 11.7565 32 16 32c2.1012 0 4.1817-.4139 6.1229-1.2179 1.9412-.8041 3.7051-1.9827 5.1908-3.4684 1.4857-1.4857 2.6643-3.2496 3.4684-5.1908C31.5861 20.1817 32 18.1012 32 16c0-2.1011-.4139-4.1817-1.2179-6.12294-.8041-1.9412-1.9827-3.70503-3.4684-5.19077-1.4857-1.48574-3.2496-2.66429-5.1908-3.46836A15.999555 15.999555 0 0016 0zm8.3333 22.4817c0 1.0183-.8333 1.8516-1.8516 1.8516H9.51833c-1.01833 0-1.85166-.8333-1.85166-1.8516V9.51833c0-1.01833.83333-1.85166 1.85166-1.85166H22.4817c1.0183 0 1.8516.83333 1.8516 1.85166V22.4817z" fill="#fff"/>
</svg>
