<svg width="115" height="34" fill="none" xmlns="http://www.w3.org/2000/svg">
  <g clip-path="url(#clip0)" fill="#F0C52E">
    <path d="M0 12.8806v2.5761h2.45789v-2.5761H0zM11.6465 4.52965c-1.5602 0-2.82122.70842-3.61202 1.73886h-.08549V0H5.91858v15.4566h2.03041v-5.3025c0-2.12524 1.32513-3.64944 3.27011-3.64944 1.838 0 2.9067 1.37392 2.9067 3.22012v5.73182h2.0304V9.35984c0-2.94106-1.8167-4.83019-4.5097-4.83019zM26.6171 4.8303h-4.8089V1.07349h-2.0304V4.8303h-1.9236v1.97501h1.9236v5.98939c0 1.7174.9618 2.662 2.693 2.662h4.1463v-1.9965h-3.7402c-.6839 0-1.0687-.3864-1.0687-1.0519V6.80531h4.8089V4.8303zM41.1216 4.55103c-1.6245 0-2.8639.79429-3.5479 2.06088h-.0641c-.6199-1.24511-1.774-2.06088-3.3555-2.06088-1.4107 0-2.4794.75135-3.1205 1.80328h-.0856v-1.5242h-1.9448V15.4565h2.0304v-5.4527c0-1.99651 1.0471-3.45628 2.6289-3.49922 1.4959-.04294 2.3723 1.03044 2.3723 2.64049v6.31143h2.0305V9.83203c0-2.38288 1.4106-3.32745 2.6288-3.32745 1.4748 0 2.3511 1.03044 2.3511 2.64049v6.31143h2.0302V8.9304c0-2.57609-1.4532-4.37937-3.9538-4.37937zM47.8271 12.7088c0 1.7388.9832 2.7478 2.7998 2.7478h2.009v-1.975h-1.7098c-.684 0-1.0687-.3864-1.0687-1.0519V0h-2.0303v12.7088zM28.9048 19.7063h-.0856c-.7922-1.0671-2.0767-1.814-3.7897-1.8354-3.1475-.0427-5.3957 2.2835-5.3957 5.5701 0 3.308 2.291 5.6342 5.3742 5.5916 1.7557-.0215 3.019-.8111 3.8112-1.9423h.0856v1.6433h2.0129V18.1697h-2.0129v1.5366zm-3.5971 7.3628c-2.2267 0-3.6398-1.622-3.6398-3.6281 0-2.006 1.4131-3.628 3.6398-3.628 2.1626 0 3.5759 1.622 3.5759 3.628 0 1.9849-1.4133 3.6281-3.5759 3.6281zM44.2095 22.0111c-.4925-2.3903-2.6122-4.1403-5.3956-4.1403-3.3615 0-5.6097 2.4543-5.6097 5.5701s2.2482 5.5916 5.6097 5.5916c2.7834 0 4.9031-1.7928 5.3956-4.2044h-2.1197c-.4281 1.3446-1.6914 2.2622-3.2544 2.2622-2.1841 0-3.5973-1.6433-3.5973-3.6494 0-2.006 1.4132-3.628 3.5973-3.628 1.6271 0 2.8263.9604 3.2544 2.1982h2.1197zM55.0836 19.7063h-.0856c-.7922-1.0671-2.077-1.814-3.7899-1.8354-3.1474-.0427-5.3956 2.2835-5.3956 5.5701 0 3.308 2.2911 5.6342 5.3741 5.5916 1.7559-.0215 3.0192-.8111 3.8114-1.9423h.0856v1.6433h2.0126V18.1697h-2.0126v1.5366zm-3.597 7.3628c-2.227 0-3.64-1.622-3.64-3.6281 0-2.006 1.413-3.628 3.64-3.628 2.1625 0 3.5756 1.622 3.5756 3.628 0 1.9849-1.4131 3.6281-3.5756 3.6281zM68.6538 19.813h-.0856c-.7922-1.1311-2.1199-1.9207-3.8114-1.942-3.083-.0427-5.3741 2.2835-5.3741 5.5914 0 3.2866 2.2482 5.6129 5.3956 5.5702 1.67-.0215 2.9977-.7684 3.7685-1.8354h.107v1.5364h2.0127V13.3679h-2.0127v6.4451zm-3.597 7.2774c-2.227 0-3.64-1.6219-3.64-3.628s1.413-3.6281 3.64-3.6281c2.1625 0 3.5756 1.6433 3.5756 3.6281 0 2.0061-1.4131 3.628-3.5756 3.628zM78.3297 17.8708c-3.2545 0-5.4814 2.497-5.4814 5.5915 0 3.0091 2.0984 5.5702 5.5241 5.5702 2.4837 0 4.4751-1.3446 5.1817-3.5855h-2.1199c-.4708 1.0032-1.6056 1.6433-2.976 1.6433-1.927 0-3.2974-1.2805-3.4474-2.9237h8.7574c.2782-3.5214-1.927-6.2958-5.4385-6.2958zm-.0429 1.9421c1.6915 0 2.9548 1.0457 3.2759 2.561h-6.5089c.2996-1.4939 1.563-2.561 3.233-2.561zM98.1985 17.8921c-1.6272 0-2.869.7896-3.5542 2.0488h-.0644c-.6208-1.2379-1.777-2.0488-3.3615-2.0488-1.413 0-2.4837.7469-3.126 1.7927h-.0856v-1.5153h-1.9485v10.5639h2.0341v-5.4206c0-1.9848 1.0493-3.436 2.6337-3.4787 1.4986-.0426 2.3767 1.0244 2.3767 2.625v6.2743h2.034v-5.5913c0-2.3689 1.4131-3.308 2.6335-3.308 1.4774 0 2.3547 1.0244 2.3547 2.625v6.2743h2.035v-6.4877c0-2.5609-1.456-4.3536-3.9615-4.3536zM109.441 27.0477l-3.64-8.878h-2.248l4.839 11.5671-.021.0426c-.343.875-.728 1.1951-1.67 1.1951h-2.505v2.0274h2.505c1.841 0 2.826-.8323 3.511-2.625l4.668-12.2072h-2.077l-3.362 8.878z"/>
  </g>
  <defs>
    <clipPath id="clip0">
      <path fill="#fff" d="M0 0h115v33.0294H0z"/>
    </clipPath>
  </defs>
</svg>
